<svg xmlns="http://www.w3.org/2000/svg" width="24" height="9" viewBox="0 0 24 9">
    <g fill="#FFF" fill-rule="nonzero">
        <path d="M20.455-.012c-.737 0-1.382.173-1.94.516-.555.342-.983.834-1.283 1.475-.299.64-.449 1.381-.449 2.222v.535c0 1.318.326 2.357.975 3.112.649.755 1.54 1.132 2.674 1.132 1.036 0 1.87-.27 2.504-.81.633-.541.983-1.283 1.052-2.225v-.002H22.17c-.041.533-.202.926-.479 1.18-.277.255-.696.383-1.26.383-.622 0-1.08-.217-1.369-.654-.289-.436-.433-1.129-.433-2.075v-.66c.008-.905.163-1.573.465-2.004.302-.43.754-.646 1.361-.646.56 0 .975.129 1.248.383.274.254.434.663.479 1.228h1.82c-.097-.978-.457-1.736-1.08-2.277-.623-.541-1.447-.813-2.467-.813zM3.291.11L0 8.86h1.938l.607-1.802h3.191l.616 1.802h1.935L4.98.11H3.29zm.844 2.211l1.111 3.276h-2.21L4.134 2.32zM12.209.11c1.073 0 1.886.202 2.441.609.555.407.832 1.004.832 1.789 0 .429-.11.806-.334 1.133a1.921 1.921 0 0 1-.93.716c.454.112.812.34 1.073.68.261.34.393.757.393 1.25 0 .841-.272 1.477-.815 1.91-.542.433-1.314.654-2.318.662H9.113V.11zm.395 4.94h-1.67v2.36h1.56c.43 0 .763-.1 1.004-.303.241-.202.361-.481.361-.837 0-.801-.417-1.207-1.255-1.22zm-.395-3.48h-1.275v2.205h1.347c.92-.016 1.38-.379 1.38-1.087 0-.397-.117-.684-.35-.858-.233-.174-.6-.26-1.102-.26z"/>
    </g>
</svg>
