<svg xmlns="http://www.w3.org/2000/svg" width="18" height="14" viewBox="0 0 18 14">
    <g fill="#FFF" fill-rule="nonzero">
        <path d="M1.636 0C.742 0 0 .742 0 1.636v9.819c0 .894.742 1.636 1.636 1.636h14.728c.894 0 1.636-.742 1.636-1.636V1.636C18 .742 17.258 0 16.364 0H1.636zm0 1.636h6.546v9.819H1.636V1.636zm8.182 0h6.546v9.819H9.818V1.636z"/>
        <path d="M11.455 4.09c0 .453.366.82.818.82h1.636a.818.818 0 0 0 0-1.637h-1.636a.818.818 0 0 0-.818.818zM11.455 6.545c0 .452.366.819.818.819h1.636a.818.818 0 0 0 0-1.637h-1.636a.818.818 0 0 0-.818.818zM11.455 9c0 .452.366.818.818.818h1.636a.818.818 0 0 0 0-1.636h-1.636a.818.818 0 0 0-.818.818z"/>
    </g>
</svg>
