<svg xmlns="http://www.w3.org/2000/svg" width="13" height="14" viewBox="0 0 13 14">
    <g fill="#FFF" fill-rule="nonzero">
        <path d="M2.8 0c-.765 0-1.4.635-1.4 1.4v.7H.7a.7.7 0 0 0 0 1.4h.7v1.4H.7a.7.7 0 0 0 0 1.4h.7v1.4H.7a.7.7 0 0 0 0 1.4h.7v1.4H.7a.7.7 0 0 0 0 1.4h.7v.7c0 .765.635 1.4 1.4 1.4h8.4c.765 0 1.4-.635 1.4-1.4V1.4c0-.765-.635-1.4-1.4-1.4H2.8zm0 1.4h8.4v11.2H2.8V1.4z"/>
        <path d="M7.685 4.2l2.316 6.125H8.646l-.43-1.262H5.98l-.425 1.262H4.2L6.504 4.2h1.181zm-.59 1.548l-.77 2.292h1.547l-.778-2.292z"/>
    </g>
</svg>
