<?xml version="1.0" encoding="utf-8"?>
<!-- Generator: Adobe Illustrator 24.2.3, SVG Export Plug-In . SVG Version: 6.00 Build 0)  -->
<svg version="1.1" id="Layer_1" xmlns="http://www.w3.org/2000/svg" xmlns:xlink="http://www.w3.org/1999/xlink" x="0px" y="0px" width="10" height="14"
	 viewBox="0 0 10 14" style="enable-background:new 0 0 10 14;" xml:space="preserve">
<style type="text/css">
	.st0{fill:#FFFFFF;}
</style>
<g>
	<g transform="translate(0.000000,512.000000) scale(0.100000,-0.100000)">
		<path class="st0" d="M50.1,4985c-13.1,0-14.4,0-18.3,1.7c-8,3.5-16.1,13.5-20.9,25.3c-2.4,6-3.5,10.9-3.7,16.4
			c-0.2,4.5,0.2,7.8,1.2,12.2c1.6,6.2,4.2,11.2,9.9,18.7c3.8,4.9,5.4,7.3,6.4,9.4c1.4,2.8,1.5,3.3,1.5,6.7c0,2.7-0.1,3.3-0.7,6.1
			c-1.2,5.6-3.9,14.4-6.7,21.4c-2.1,5.3-1.2,9.1,2.7,11.2C23,5115,23,5115,50,5115h6.9c23.1,0,23.1,0,24.8-4.2c1.4-3,0.5-5.4-0.9-9
			c-4.2-10.8-6.8-20.5-7-26c-0.2-4.3,0.3-6.4,6.6-14.8c6.2-8.3,8.3-11.8,10.2-17.3c1.7-4.9,2.2-7.6,2.2-13.6c0-5.6-0.3-7.6-1.8-12.9
			c-4-13.6-13.5-26.4-22.7-30.4C64.5,4985,63.1,4985,50.1,4985z M35.8,5100.1c1.3-3.8,2.6-8,3.4-11.1c1.6-6.3,1.9-8.6,1.9-13.8
			c0-4.4,0-5.4-0.9-8.1c-1.5-5-3.5-8.4-8.8-15.4c-6.4-8.4-7.9-11.7-8.9-16.9c-0.5-2.5-0.4-7.5,0.1-10.1
			c2.7-12.9,11.8-23.8,16.3-24.7c0.5-0.1,4.2-0.2,11.2-0.2s10.6,0.1,11.3,0.2c0.6,0.1,3.3,0.9,7.2,5.7c4.1,5.1,7.6,12.5,9,19
			c0.5,2.6,0.6,7.6,0.1,10c-1,5.2-2.5,8.5-8.9,16.9c-6.2,8.1-8.6,12.8-9.5,18.6c-0.8,5,0,12.2,2.2,20.3c0.7,2.6,1.9,6.2,2.9,9.4
			C60.8,5100.1,39.4,5100.1,35.8,5100.1z"/>
		<path class="st0" d="M23.9,5109.7c-1.5-0.8-1.6-2-0.4-5c2.8-7.2,5.7-16.3,6.9-22.2c0.7-3.1,0.8-4.1,0.8-7.1c0-4.2-0.3-5.4-1.9-8.9
			c-1.2-2.5-2.9-4.9-6.9-10.3c-5.3-6.9-7.7-11.4-9-16.9c-1-3.9-1.3-6.7-1.1-10.8c0.2-4.9,1.2-9.4,3.4-14.7
			c4.3-10.6,11.5-19.6,18.3-22.6c2.8-1.2,3.3-1.3,16.3-1.3s13.5,0,16.3,1.3c7.8,3.5,16.4,15.2,19.9,27.3c1.4,4.8,1.6,6.4,1.6,11.5
			c0,5.4-0.3,7.6-1.9,12c-1.7,4.9-3.6,8.1-9.5,15.9c-6.5,8.6-7.9,11.9-7.6,18c0.3,6,2.9,16.1,7.3,27.6c1.3,3.5,1.5,4.1,1,5.1
			c-0.6,1.4,0.7,1.3-27.2,1.3C31.8,5110,24.3,5109.9,23.9,5109.7z M71.3,5104.7c-1.1-2.8-3.8-10.9-5.1-15.4
			c-2-7.2-2.8-13.9-2.1-18.1c0.8-4.9,2.9-8.9,8.6-16.4c6.5-8.5,8.6-12.6,9.9-19c0.6-3.2,0.6-8.8-0.1-12.1c-1.5-7.3-5.4-15.4-10-21.1
			c-3.5-4.3-7.1-6.9-10.3-7.5c-1.9-0.4-22.3-0.4-24.1,0c-7.7,1.4-17.4,15.1-20.3,28.6c-0.7,3.2-0.7,8.9-0.1,12.1
			c1.3,6.4,3.4,10.5,9.9,19c4.9,6.4,6.7,9.4,8,13.8c0.6,2,0.7,2.4,0.7,6.6c0,4.8-0.3,6.7-1.8,12.5c-1.2,4.8-3.9,13-5.5,16.9
			c-0.2,0.4,0.9,0.4,21.2,0.4C70.3,5105.1,71.4,5105.1,71.3,5104.7z"/>
	</g>
</g>
</svg>
