<svg xmlns="http://www.w3.org/2000/svg" width="20" height="15" viewBox="0 0 20 15">
    <g fill="none" fill-rule="nonzero">
        <path fill="#21409a" d="M19.115 6.923h-1.73a.577.577 0 0 0 0 1.154h1.73a.577.577 0 0 0 0-1.154zM18.37 10.554L17.215 9.4a.577.577 0 0 0-.816.816l1.154 1.154a.577.577 0 1 0 .816-.816zM18.37 3.63a.577.577 0 0 0-.816 0L16.4 4.785a.577.577 0 1 0 .816.816l1.153-1.154a.577.577 0 0 0 0-.815z"/>
        <path fill="#2A2A2A" d="M13.346 0c-.866 0-1.586.64-1.711 1.472L11.108 2c-.915.916-2.264 1.463-3.608 1.463H4.038c-.752 0-1.393.482-1.631 1.153h-.1A2.31 2.31 0 0 0 0 6.923a2.31 2.31 0 0 0 2.308 2.308h.099c.174.49.564.88 1.055 1.054v2.984c0 .955.776 1.731 1.73 1.731.955 0 1.731-.776 1.731-1.73v-2.885H7.5c1.344 0 2.692.546 3.608 1.462l.527.527a1.733 1.733 0 0 0 1.711 1.472c.954 0 1.73-.776 1.73-1.73V1.73C15.077.776 14.3 0 13.347 0zM2.308 8.077a1.155 1.155 0 0 1-1.154-1.154c0-.636.517-1.154 1.154-1.154v2.308zm3.461 5.192a.578.578 0 0 1-1.154 0v-2.884H5.77v2.884zm1.154-4.038H4.038a.578.578 0 0 1-.576-.577V5.192c0-.318.258-.577.576-.577h2.885v4.616zm4.692 1.513a6.306 6.306 0 0 0-3.542-1.487V4.589a6.305 6.305 0 0 0 3.542-1.487v7.642zm2.308 1.371a.578.578 0 0 1-1.154 0V1.731a.578.578 0 0 1 1.154 0v10.384z"/>
    </g>
</svg>
