<svg xmlns="http://www.w3.org/2000/svg" width="16" height="14" viewBox="0 0 16 14">
    <g fill="#FFF" fill-rule="nonzero">
        <path d="M1.167 0C.523 0 0 .523 0 1.167v3.5h.778v7.777c0 .858.697 1.556 1.555 1.556h10.89c.857 0 1.555-.698 1.555-1.556V4.667h.778v-3.5C15.556.523 15.032 0 14.389 0H1.167zm.389 1.556H14V3.11H1.556V1.556zm.777 3.11h10.89v7.778H2.334V4.667z"/>
        <path d="M5.444 7c0 .43.349.778.778.778h3.111a.778.778 0 1 0 0-1.556h-3.11A.778.778 0 0 0 5.443 7z"/>
    </g>
</svg>
