<svg xmlns="http://www.w3.org/2000/svg" width="14" height="14" viewBox="0 0 14 14">
    <g fill="#FFF" fill-rule="nonzero">
        <path d="M4.2 0L0 4.2l3.5 3.5-2.8 2.8v2.8h2.8l2.8-2.8L9.8 14 14 9.8l-3.5-3.5 3.295-3.295a.7.7 0 0 0 0-.99l-1.81-1.81a.698.698 0 0 0-.99 0L7.7 3.5 4.2 0zm7.29 1.69l.82.82-.905.905-.82-.82.905-.905zm-7.29.29l2.51 2.51-2.22 2.22L1.98 4.2 4.2 1.98zm5.395 1.605l.82.82L2.92 11.9H2.1v-.82l7.495-7.495zM9.51 7.29l2.51 2.51-2.22 2.22-2.51-2.51 2.22-2.22z"/>
        <path d="M3.5 7.7L.7 10.5v2.8h2.8l2.8-2.8 4.2-4.2 3.295-3.295a.7.7 0 0 0 0-.99l-1.81-1.81a.698.698 0 0 0-.99 0L7.7 3.5 3.5 7.7zm7.99-6.01l.82.82-.905.905-.82-.82.905-.905zM9.595 3.585l.82.82L2.92 11.9H2.1v-.82l7.495-7.495z"/>
    </g>
</svg>
