<svg xmlns="http://www.w3.org/2000/svg" width="16" height="14" viewBox="0 0 16 14">
    <g fill="#FFF" fill-rule="nonzero">
        <path d="M7.636 0L0 3.182l2.545 1.061v3.245A1.91 1.91 0 0 0 1.91 8.91c0 .812.524 1.526 1.268 1.792C4.07 12.745 5.755 14 7.637 14c1.881 0 3.565-1.255 4.459-3.299a1.915 1.915 0 0 0 1.268-1.792 1.91 1.91 0 0 0-.637-1.42V4.242L14 3.713V7h1.273V3.182L7.636 0zm0 1.38l4.328 1.802-.51.211V5.2c-.199-.07-.413-.11-.636-.11H4.455c-.223 0-.438.04-.637.11V3.393l-.51-.211L7.637 1.38zM4.455 6.364h6.363c.351 0 .637.285.637.636v1.178l.319.183a.625.625 0 0 1 .317.548.634.634 0 0 1-.55.624l-.371.052-.134.35c-.661 1.723-1.964 2.792-3.4 2.792-1.435 0-2.737-1.07-3.398-2.791l-.134-.35-.373-.052a.636.636 0 0 1-.55-.625c0-.229.12-.434.318-.548l.32-.183V7c0-.351.284-.636.636-.636z"/>
        <path d="M7.636 0L0 3.182l2.545 1.061V5.5h10.182V4.243L14 3.713V7h1.273V3.182L7.636 0zm0 1.38l4.328 1.802-.51.211V5.2c-.199-.07-.413-.11-.636-.11H4.455c-.223 0-.438.04-.637.11V3.393l-.51-.211L7.637 1.38z"/>
    </g>
</svg>
